P2
10 10
150
0 0 0 0 0 0 0 0 150 150
0 0 0 0 0 0 0 0 150 150
0 0 150 150 150 150 150 150 150 150
0 0 150 150 150 150 150 150 150 150
0 0 150 150 150 150 150 150 150 150
0 0 150 150 150 150 150 150 150 150
0 0 150 150 150 150 150 150 150 150
0 0 150 150 150 150 150 150 150 150
0 0 0 0 0 0 0 0 150 150
0 0 0 0 0 0 0 0 150 150
